<?xml version="1.0" encoding="UTF-8"?><svg id="Layer_1" xmlns="http://www.w3.org/2000/svg" viewBox="135 0 275 55"><g><path d="M170.43,25.65c0,7.88-1.17,13.89-13.14,13.89s-13.78-5.76-13.78-13.89V6.47c0-4.31-1.84-4.73-5.02-4.73V.57h15.16V1.7c-3.07,.04-4.98,.42-4.98,4.77V25.65c0,5.87,1.38,11.62,8.87,11.62,8.3,0,9.61-4.77,9.61-11.62V6.47c0-4.35-1.87-4.73-5.02-4.73V.57h13.32V1.7c-3.18,0-5.02,.39-5.02,4.73V25.65Z" fill="#182b49"/><path d="M202.3,37.95c-2.83,1.02-6.04,1.55-10.32,1.55-11.52,0-17.07-8.76-17.07-21.02C174.92,7.84,178.38,0,190.71,0c3.75,.04,7.45,.6,11.06,1.63l.53,9.04h-1.45c-.74-3.25-3.04-8.41-10.21-8.41-9.26,0-10.03,9.86-10.03,15.79,0,7.42,1.63,18.9,14.24,18.9,2.54,.04,5.09-.46,7.42-1.45l.04,2.44Z" fill="#182b49"/><path d="M233.25,8.87c-.53-3.04-2.83-6.64-8.97-6.64-3.85,0-7.24,2.47-7.24,6.29,0,5.12,6.85,6.78,11.87,9.75,4.56,2.65,7.6,5.02,7.6,10.49,0,7.31-6.36,10.78-14.24,10.78-3.92,0-8.48-.85-9.89-1.1l-.42-8.13h1.45c.46,3.07,3.18,6.64,9.33,6.64,5.05,0,8.34-3.29,8.34-7.24,0-6.22-9.57-8.13-14.91-12.22-2.54-1.94-3.75-4.03-3.75-7.74C212.37,2.83,218.09,0,225.33,0c3,0,6.01,.32,8.94,.99l.39,7.88s-1.41,0-1.41,0Z" fill="#182b49"/><path d="M252.43,27.56c-2.4,.07-8.97,.53-8.97,5.3,0,2.65,1.73,4.45,3.5,4.45,3.32,0,5.48-3.22,5.48-6.71v-3.04Zm7.56,11.41c-1.24,.32-2.47,.46-3.75,.46-2.97,0-3.85-1.52-3.85-3.75h-.11c-1.59,2.3-3.78,3.75-7.28,3.75s-6.15-2.47-6.15-5.79c0-7.42,9.65-7.42,13.53-7.81v-1.94c0-3.6-.07-7.38-4.35-7.38-3.18,0-3.6,1.34-3.6,2.97,0,2.12-1.52,2.65-2.4,2.65-1.38,0-2.47-.92-2.47-2.3,0-3.32,4.98-5.02,8.51-5.02,7.03,0,8.3,3.39,8.3,8.13v12.72c0,1.8,.6,2.4,2.19,2.4,.46,0,.92-.07,1.38-.21l.04,1.13Z" fill="#182b49"/><path d="M261.12,38.09c2.16,0,3.89-.46,3.89-3.78v-14.03c0-3.07-2.4-3.22-3.89-3.32v-.88l7.88-1.24v6.75h.11c.71-1.91,3-6.75,8.09-6.75,5.44,0,5.94,2.97,5.94,7.74v11.66c0,3.32,1.73,3.78,3.89,3.78v.88h-11.8v-.88c2.16,0,3.89-.46,3.89-3.78v-10.49c0-4.42-.04-6.39-3.43-6.39-3,0-6.71,5.79-6.71,10.67v6.25c0,3.32,1.73,3.78,3.89,3.78v.88h-11.77l.04-.85Z" fill="#182b49"/><path d="M303.06,31.87c0,4.2,.46,4.84,3.36,4.84,9.89,0,13.99-5.3,13.99-16.89,0-10.6-3.04-16.99-13.99-16.99-2.9,0-3.36,.35-3.36,4.84V31.87Zm-10.14,5.94c3.11,0,5.02-.39,5.02-4.73V6.47c0-4.31-1.91-4.73-5.02-4.73V.57h13.5c9.57,0,19.71,2.08,19.71,19.26s-10.67,19.11-19.71,19.11h-13.5v-1.13Z" fill="#182b49"/><path d="M331.05,7.21c0-1.63,1.31-2.93,2.93-2.9,1.63,.04,2.93,1.31,2.9,2.93,0,1.63-1.31,2.93-2.93,2.9-1.59,0-2.9-1.27-2.93-2.86,.04,0,.04-.04,.04-.07m-2.83,30.88c2.16,0,3.89-.46,3.89-3.78v-14.03c0-3.07-2.37-3.22-3.89-3.32v-.88l7.88-1.24v19.43c0,3.32,1.73,3.78,3.89,3.78v.88h-11.8l.04-.85Z" fill="#182b49"/><path d="M354.65,22.79c0-2.72-.92-6.25-4.88-6.25s-5.48,4.35-5.48,6.25h10.35Zm3.89,15.76c-1.24,.46-2.97,.92-6.11,.92-7.95,0-12.4-4.35-12.4-12.97,0-7.49,3.04-11.62,10.39-11.62,4.59,0,8.76,2.54,8.76,8.51v1.13h-14.91c0,4.31,2.08,13.07,10.67,13.07,1.17,0,2.54-.14,3.6-.67v1.63h0Z" fill="#182b49"/><path d="M371.46,29.57c4.31,0,4.88-3.39,4.88-6.11,0-3.85-1.34-6.92-5.02-6.92-4.06,0-4.81,2.97-4.81,5.94-.04,3.92,1.24,7.1,4.95,7.1m-4.45,8.9c-1.02,.78-2.47,1.63-2.47,3.96,0,3.04,2.72,5.65,7.17,5.65s8.97-2.4,8.97-6.11c0-2.61-2.16-3.5-4.7-3.5h-8.97Zm8.87-3.64c2.44,0,8.16,.11,8.16,5.79s-5.72,9.12-12.54,9.12c-5.02,0-10.25-1.91-10.25-6.5,0-3.18,2.37-4.56,3.99-5.37-.88-.49-2.19-1.48-2.19-3.64,0-1.91,1.66-3.85,2.19-4.45-1.17-.99-2.97-2.51-2.97-6.85,0-6.61,4.81-8.06,9.68-8.06,2.37,0,3.64,.42,5.3,1.27,.81-1.94,2.05-5.48,5.16-5.48,1.45,0,2.47,.92,2.47,2.47,0,1.38-.88,2.3-2.4,2.3-1.34,0-1.66-.71-2.3-.71-1.13,0-1.59,1.48-1.84,2.3,.6,.67,2.3,2.54,2.3,6.15,0,5.19-3.22,8.09-9.36,8.09-2.05,0-3.53-.25-4.66-.78-.57,.64-.88,1.45-.92,2.3,0,2.05,2.54,2.05,4.2,2.05h5.97Z" fill="#182b49"/><path d="M394.78,37.77c5.12,0,6.15-6.36,6.15-10.6s-1.02-10.6-6.15-10.6-6.15,6.36-6.15,10.6,1.02,10.6,6.15,10.6m-10.71-10.6c0-7.7,4.13-12.3,10.71-12.3s10.71,4.59,10.71,12.3-4.13,12.3-10.71,12.3-10.71-4.63-10.71-12.3" fill="#182b49"/></g><g><path d="M358.6,47.77H138.52v1.31h221.32c-.46-.39-.88-.81-1.24-1.31" fill="#c49014"/><path d="M405.06,47.77h-20.24c-.46,.46-.99,.92-1.52,1.31h21.76v-1.31h0Z" fill="#c49014"/></g></svg>